# xmcd
#
# Track frame offsets:
#	150
#	13235
#	50985
#	79872
#	84859
#	114267
#	148304
#
# Disc length: 2526 seconds
#
# Revision: 0
# Processed by: cddbd v1.5.1PL2 Copyright (c) Steve Scherf et al.
# Submitted via: EasyCDDAExtractor 9.0.0.1
#
DISCID=5a09dc07
DTITLE=Zero - with Jerry Gracia - Live at the Golden Gate Park Bandshell
DYEAR=1988
DGENRE=Blues
TTITLE0=Wavy Gravy's introduction
TTITLE1=Golden Road
TTITLE2=Little Wing
TTITLE3=Wavy Gravy's Guests Intro
TTITLE4=Think
TTITLE5=Knocking On Heavens Door
TTITLE6=Goodnight Irene
EXTD=
EXTT0=
EXTT1=
EXTT2=
EXTT3=
EXTT4=
EXTT5=
EXTT6=
PLAYORDER=
